<svg width="1440" height="377" viewBox="0 0 1440 377" fill="none" xmlns="http://www.w3.org/2000/svg">
<path d="M-5.01266 31.9041C57.3211 2.18385 75.7005 -26.9262 152.488 51.01C249.989 149.969 361.99 173.974 554.992 114.696C747.993 55.419 744.993 85.3026 1040.99 186.221C1337 287.139 1215.5 197.488 1451 114.696C1452.72 114.092 1454.39 113.5 1456.02 112.919C1488.42 85.7967 1563.58 74.6453 1456.02 112.919C1439.02 127.158 1433.8 145.798 1473 164L1451 256V353.275C1415 394.426 1904.5 288.119 1421.5 388.547C1035.09 468.89 1067.33 449.784 1040.99 449.784C1029.16 439.986 951.295 506.612 762.493 449.784C526.492 378.749 357.49 479.668 260.489 449.784C163.488 419.901 182.989 438.517 116.488 414.512C-28.5128 325.351 -11.0127 478.198 -5.01268 324.371C-0.212649 201.31 -25.1795 77.301 -5.01266 31.9041Z" fill="#19191C"/>
<path d="M1451 353.275C1451 286.649 1451 311.031 1451 256L1473 164C1358 110.601 1625.28 53.4251 1451 114.696C1215.5 197.488 1337 287.139 1040.99 186.221C744.993 85.3026 747.993 55.419 554.992 114.696C361.99 173.974 249.989 149.969 152.488 51.01C75.7005 -26.9262 57.3211 2.18385 -5.01266 31.9041C-25.1795 77.301 -0.212649 201.31 -5.01268 324.371C-11.0127 478.198 -28.5128 325.351 116.488 414.512C182.989 438.517 163.488 419.901 260.489 449.784C357.49 479.668 526.492 378.749 762.493 449.784C951.295 506.612 1029.16 439.986 1040.99 449.784C1067.33 449.784 1035.09 468.89 1421.5 388.547C1904.5 288.119 1415 394.426 1451 353.275ZM1451 353.275C1451 436.557 1487 312.124 1451 353.275Z" stroke="black"/>
</svg>
