<svg width="302" height="206" viewBox="0 0 302 206" fill="none" xmlns="http://www.w3.org/2000/svg">
<path d="M45.3367 167.355C43.1654 175.631 35.5568 180.804 35.5568 180.804C35.5568 180.804 31.4686 172.557 33.64 164.28C35.8113 156.003 43.4199 150.831 43.4199 150.831C43.4199 150.831 47.5081 159.078 45.3367 167.355Z" fill="#3F3D56"/>
<path d="M42.0433 165.604C35.9617 171.618 35.2813 180.799 35.2813 180.799C35.2813 180.799 44.4611 180.229 50.5427 174.215C56.6242 168.201 57.3046 159.02 57.3046 159.02C57.3046 159.02 48.1248 159.589 42.0433 165.604Z" fill="#19191C"/>
<path d="M49.6697 178.38H25.881C23.2716 178.38 21.1564 180.497 21.1564 183.109V187.808C21.1564 190.42 23.2716 192.538 25.881 192.538H49.6697C52.279 192.538 54.3943 190.42 54.3943 187.808V183.109C54.3943 180.497 52.279 178.38 49.6697 178.38Z" fill="#19191C"/>
<g opacity="0.7">
<path opacity="0.7" d="M278.39 169.336V164.235H252.908V187.829C252.908 188.482 253.036 189.129 253.286 189.732C253.536 190.336 253.902 190.884 254.363 191.346C254.824 191.808 255.372 192.174 255.975 192.424C256.578 192.674 257.224 192.803 257.877 192.803H273.421C274.739 192.803 276.003 192.279 276.935 191.346C277.866 190.413 278.39 189.148 278.39 187.829V182.6C280.145 182.597 281.827 181.896 283.067 180.653C284.306 179.41 285.003 177.725 285.003 175.968C285.003 174.212 284.306 172.527 283.067 171.283C281.827 170.04 280.145 169.34 278.39 169.336ZM278.39 180.049V171.887C279.471 171.887 280.508 172.317 281.273 173.082C282.038 173.848 282.467 174.886 282.467 175.968C282.467 177.051 282.038 178.089 281.273 178.854C280.508 179.619 279.471 180.049 278.39 180.049Z" fill="url(#paint0_linear)"/>
</g>
<path d="M277.57 170.135C276.374 170.135 275.204 170.49 274.209 171.155C273.214 171.821 272.439 172.766 271.981 173.873C271.523 174.979 271.404 176.197 271.637 177.371C271.87 178.546 272.447 179.625 273.293 180.472C274.139 181.319 275.216 181.895 276.39 182.129C277.563 182.362 278.78 182.243 279.885 181.784C280.99 181.326 281.935 180.55 282.6 179.554C283.265 178.558 283.619 177.388 283.619 176.19C283.619 174.584 282.982 173.044 281.848 171.908C280.713 170.773 279.174 170.135 277.57 170.135ZM277.57 179.916C276.834 179.916 276.114 179.698 275.502 179.288C274.89 178.879 274.413 178.297 274.131 177.616C273.849 176.935 273.775 176.186 273.919 175.463C274.063 174.74 274.417 174.076 274.938 173.555C275.458 173.034 276.122 172.679 276.844 172.535C277.566 172.392 278.314 172.465 278.995 172.747C279.675 173.03 280.256 173.507 280.665 174.12C281.074 174.733 281.293 175.453 281.293 176.19C281.293 177.178 280.901 178.126 280.202 178.825C279.504 179.524 278.557 179.916 277.57 179.916Z" fill="#19191C"/>
<path opacity="0.1" d="M277.57 170.135C276.374 170.135 275.204 170.49 274.209 171.155C273.214 171.821 272.439 172.766 271.981 173.873C271.523 174.979 271.404 176.197 271.637 177.371C271.87 178.546 272.447 179.625 273.293 180.472C274.139 181.319 275.216 181.895 276.39 182.129C277.563 182.362 278.78 182.243 279.885 181.784C280.99 181.326 281.935 180.55 282.6 179.554C283.265 178.558 283.619 177.388 283.619 176.19C283.619 174.584 282.982 173.044 281.848 171.908C280.713 170.773 279.174 170.135 277.57 170.135ZM277.57 179.916C276.834 179.916 276.114 179.698 275.502 179.288C274.89 178.879 274.413 178.297 274.131 177.616C273.849 176.935 273.775 176.186 273.919 175.463C274.063 174.74 274.417 174.076 274.938 173.555C275.458 173.034 276.122 172.679 276.844 172.535C277.566 172.392 278.314 172.465 278.995 172.747C279.675 173.03 280.256 173.507 280.665 174.12C281.074 174.733 281.293 175.453 281.293 176.19C281.293 177.178 280.901 178.126 280.202 178.825C279.504 179.524 278.557 179.916 277.57 179.916Z" fill="#19191C"/>
<path d="M254.304 165.477H277.57V188.527C277.57 189.331 277.251 190.103 276.682 190.672C276.114 191.241 275.343 191.561 274.539 191.561H257.335C256.531 191.561 255.76 191.241 255.191 190.672C254.623 190.103 254.304 189.331 254.304 188.527V165.477Z" fill="#19191C"/>
<path d="M302 191.561H0V201.808H302V191.561Z" fill="#E0E0E0"/>
<g opacity="0.7">
<path opacity="0.7" d="M198.642 122.998C195.405 111.238 177.055 102.65 163.248 100.746C163.25 100.659 163.255 100.573 163.255 100.486V90.4194C163.269 90.414 163.285 90.4095 163.299 90.4041V90.0225C168.199 88.1984 172.621 85.2831 176.23 81.497C179.839 77.7108 182.541 73.153 184.131 68.168C184.985 66.6236 185.727 65.0206 186.354 63.371C187.828 62.8338 188.941 60.4009 188.941 57.4776C188.947 56.4777 188.807 55.4823 188.525 54.5229C188.706 53.034 188.798 51.5357 188.802 50.0359C188.807 44.793 187.712 39.6073 185.586 34.8156C183.46 30.024 180.351 25.7333 176.461 22.2221C176.576 21.6198 176.615 21.0054 176.577 20.3932C176.265 15.5616 171.109 12.279 166.277 12.0595C167.554 10.61 168.393 8.82774 168.697 6.91978C169.002 5.01181 168.759 3.05655 167.997 1.2813C164.916 5.77449 158.59 6.25211 153.146 6.28745C155.495 5.37679 156.552 2.11855 155.186 1.52588e-05C149.495 7.63442 138.403 9.04811 131.635 15.7437C130.16 17.2082 128.925 18.8952 127.973 20.7433C123.574 24.2506 120.023 28.7061 117.584 33.7779C115.144 38.8497 113.88 44.407 113.884 50.0359C113.887 51.5222 113.977 53.0069 114.155 54.4824C113.865 55.4541 113.72 56.4635 113.726 57.4776C113.726 60.4143 114.85 62.8547 116.334 63.3769C116.963 65.0322 117.709 66.6405 118.567 68.1898C120.151 73.1459 122.835 77.6791 126.418 81.4504C130 85.2217 134.388 88.1334 139.253 89.9676V100.486C139.253 100.567 139.257 100.647 139.259 100.728C125.4 102.599 106.903 111.254 103.695 123.109C100.925 133.346 97.9675 144.589 96.4961 151.19C109.108 160.06 135.571 165.268 152.156 165.268C167.914 165.268 193.669 160.567 205.909 152.49C204.583 145.238 201.533 133.501 198.642 122.998Z" fill="url(#paint1_linear)"/>
</g>
<path d="M152.122 162.348C167.323 162.348 192.168 157.814 203.976 150.022C202.697 143.025 199.754 131.704 196.966 121.571C193.414 108.668 170.999 99.7218 157.627 99.7218H144.741C131.328 99.7218 108.881 108.719 105.374 121.678C102.701 131.554 99.8486 142.4 98.4292 148.767C110.595 157.324 136.124 162.348 152.122 162.348Z" fill="#19191C"/>
<path d="M151.338 87.3579C171.295 87.3579 187.473 71.164 187.473 51.1878C187.473 31.2117 171.295 15.0178 151.338 15.0178C131.381 15.0178 115.203 31.2117 115.203 51.1878C115.203 71.164 131.381 87.3579 151.338 87.3579Z" fill="#72351C"/>
<path opacity="0.1" d="M139.675 81.3143H162.829V99.8553C162.829 102.929 161.609 105.876 159.438 108.049C157.267 110.222 154.322 111.443 151.252 111.443H151.252C148.182 111.443 145.237 110.222 143.066 108.049C140.895 105.876 139.675 102.929 139.675 99.8553V81.3143H139.675Z" fill="black"/>
<path d="M142.996 80.456H159.508C160.389 80.456 161.233 80.8062 161.856 81.4297C162.479 82.0531 162.829 82.8986 162.829 83.7803V98.9969C162.829 102.07 161.609 105.018 159.438 107.191C157.267 109.364 154.322 110.585 151.252 110.585H151.252C148.182 110.585 145.237 109.364 143.066 107.191C140.895 105.018 139.675 102.07 139.675 98.9969V83.7803C139.675 82.8986 140.025 82.0531 140.648 81.4297C141.271 80.8062 142.115 80.456 142.996 80.456Z" fill="#FDA57D"/>
<path opacity="0.1" d="M139.718 90.0654C147.18 92.8563 155.394 92.879 162.872 90.1295V87.2825H139.718V90.0654Z" fill="black"/>
<path d="M151.338 91.6173C169.666 91.6173 184.525 76.7446 184.525 58.3982C184.525 40.0518 169.666 25.1791 151.338 25.1791C133.009 25.1791 118.151 40.0518 118.151 58.3982C118.151 76.7446 133.009 91.6173 151.338 91.6173Z" fill="#FDA57D"/>
<path opacity="0.1" d="M127.698 28.1818C127.698 28.1818 141.685 56.5994 181.139 40.0921L171.954 25.6744L155.671 19.8237L127.698 28.1818Z" fill="black"/>
<path d="M127.698 27.7639C127.698 27.7639 141.685 56.1815 181.139 39.6742L171.954 25.2565L155.671 19.4058L127.698 27.7639Z" fill="#72351C"/>
<path d="M127.574 25.844C128.517 22.9217 130.147 20.2685 132.326 18.1073C138.855 11.6484 149.556 10.2846 155.045 2.91998C156.363 4.96367 155.343 8.10677 153.077 8.98525C158.329 8.95115 164.431 8.49042 167.403 4.15599C168.138 5.86852 168.373 7.75469 168.079 9.59524C167.785 11.4358 166.976 13.1551 165.744 14.5533C170.406 14.7651 175.379 17.9316 175.681 22.5926C175.881 25.6977 173.936 28.6377 171.387 30.4185C168.838 32.1993 165.754 33.0168 162.718 33.6867C153.856 35.6424 121.792 43.8394 127.574 25.844Z" fill="#72351C"/>
<path d="M184.524 58.689H183.644L166.526 73.9425C150.035 66.2113 137.927 73.9425 137.927 73.9425L119.975 59.3158L118.164 59.5435C118.41 68.262 122.071 76.5342 128.358 82.5738C134.644 88.6134 143.052 91.9357 151.765 91.8235C160.477 91.7113 168.797 88.1736 174.926 81.9741C181.055 75.7746 184.503 67.4109 184.524 58.689ZM151.287 79.7932C144.831 79.7932 139.597 78.4835 139.597 76.8679C139.597 75.2523 144.831 73.9425 151.287 73.9425C157.744 73.9425 162.978 75.2523 162.978 76.8679C162.978 78.4835 157.744 79.7932 151.287 79.7932Z" fill="#72351C"/>
<path d="M118.137 64.1606C119.842 64.1606 121.225 61.5665 121.225 58.3665C121.225 55.1666 119.842 52.5725 118.137 52.5725C116.432 52.5725 115.05 55.1666 115.05 58.3665C115.05 61.5665 116.432 64.1606 118.137 64.1606Z" fill="#FDA57D"/>
<path d="M184.52 64.1606C186.225 64.1606 187.608 61.5665 187.608 58.3665C187.608 55.1666 186.225 52.5725 184.52 52.5725C182.815 52.5725 181.433 55.1666 181.433 58.3665C181.433 61.5665 182.815 64.1606 184.52 64.1606Z" fill="#FDA57D"/>
<g opacity="0.7">
<path opacity="0.7" d="M210.708 117.533H91.292C88.8025 117.533 86.7843 119.554 86.7843 122.045V187.049C86.7843 189.541 88.8025 191.561 91.292 191.561H210.708C213.198 191.561 215.216 189.541 215.216 187.049V122.045C215.216 119.554 213.198 117.533 210.708 117.533Z" fill="url(#paint2_linear)"/>
</g>
<path d="M204.547 118.899H97.4534C92.846 118.899 89.111 122.638 89.111 127.25V183.21C89.111 187.822 92.846 191.561 97.4534 191.561H204.547C209.154 191.561 212.889 187.822 212.889 183.21V127.25C212.889 122.638 209.154 118.899 204.547 118.899Z" fill="#535461"/>
<path d="M151 159.422C153.313 159.422 155.188 157.545 155.188 155.23C155.188 152.915 153.313 151.038 151 151.038C148.687 151.038 146.812 152.915 146.812 155.23C146.812 157.545 148.687 159.422 151 159.422Z" fill="white"/>
<path d="M289.203 201.808H12.7966V206H289.203V201.808Z" fill="#E0E0E0"/>
<path opacity="0.1" d="M289.203 201.808H12.7966V203.205H289.203V201.808Z" fill="black"/>
<path opacity="0.1" d="M273.382 165.477V187.019C273.382 188.224 272.904 189.379 272.053 190.231C271.202 191.082 270.048 191.561 268.845 191.561H271.172C272.375 191.561 273.529 191.082 274.38 190.231C275.231 189.379 275.709 188.224 275.709 187.019V165.477H273.382Z" fill="black"/>
<path d="M258.895 148.114C258.502 148.182 258.06 148.288 257.867 148.637C257.562 149.19 258.115 149.815 258.62 150.195C259.552 150.898 260.535 151.589 261.169 152.57C261.803 153.551 262.002 154.921 261.309 155.861C260.404 157.089 258.246 157.353 258.037 158.865C257.903 159.835 258.741 160.663 259.59 161.15C261.686 162.351 264.388 162.672 265.906 164.552C266.534 163.26 267.938 162.512 269.338 162.193C270.739 161.874 272.193 161.898 273.613 161.682C274.071 161.612 274.587 161.472 274.792 161.055C275.189 160.249 274.058 159.283 274.448 158.473C274.745 157.857 275.618 157.905 276.255 157.659C277.293 157.257 277.721 155.92 277.427 154.846C277.132 153.772 276.3 152.933 275.425 152.245C273.068 150.39 270.232 149.3 267.365 148.515C266.031 148.15 264.466 147.578 263.081 147.523C261.743 147.47 260.218 147.888 258.895 148.114Z" fill="#EEEEEE"/>
<defs>
<linearGradient id="paint0_linear" x1="268.961" y1="192.803" x2="268.961" y2="164.235" gradientUnits="userSpaceOnUse">
<stop stop-color="#808080" stop-opacity="0.25"/>
<stop offset="0.53514" stop-color="#808080" stop-opacity="0.12"/>
<stop offset="1" stop-color="#808080" stop-opacity="0.1"/>
</linearGradient>
<linearGradient id="paint1_linear" x1="65815.6" y1="107442" x2="65815.6" y2="19666.9" gradientUnits="userSpaceOnUse">
<stop stop-color="#808080" stop-opacity="0.25"/>
<stop offset="0.53514" stop-color="#808080" stop-opacity="0.12"/>
<stop offset="1" stop-color="#808080" stop-opacity="0.1"/>
</linearGradient>
<linearGradient id="paint2_linear" x1="62468.5" y1="45688.7" x2="62468.5" y2="28078" gradientUnits="userSpaceOnUse">
<stop stop-color="#808080" stop-opacity="0.25"/>
<stop offset="0.53514" stop-color="#808080" stop-opacity="0.12"/>
<stop offset="1" stop-color="#808080" stop-opacity="0.1"/>
</linearGradient>
</defs>
</svg>
