<svg width="250" height="230" viewBox="0 0 250 230" fill="none" xmlns="http://www.w3.org/2000/svg">
<g clip-path="url(#clip0)">
<path d="M15.1524 18.3687C11.1351 18.3732 7.28372 19.9641 4.44308 22.7922C1.60244 25.6204 0.00456926 29.4549 0 33.4545V207.252C0.00460862 211.252 1.60251 215.086 4.44314 217.914C7.28378 220.742 11.1352 222.333 15.1524 222.338H143.208C147.226 222.333 151.077 220.742 153.918 217.914C156.758 215.086 158.356 211.252 158.361 207.252V33.4545C158.356 29.4549 156.758 25.6204 153.918 22.7923C151.077 19.9641 147.226 18.3733 143.208 18.3687H15.1524Z" fill="#19191C"/>
<path d="M150.481 29.0837H7.87958V211.623H150.481V29.0837Z" fill="white"/>
<path d="M131.839 61.803H26.5216V68.6912H131.839V61.803Z" fill="#828EFF"/>
<path d="M131.839 80.1716H26.5216V87.0599H131.839V80.1716Z" fill="#828EFF"/>
<path d="M131.839 98.5403H26.5216V105.429H131.839V98.5403Z" fill="#828EFF"/>
<path d="M131.839 116.909H26.5216V123.797H131.839V116.909Z" fill="#828EFF"/>
<path d="M131.839 135.278H26.5216V142.166H131.839V135.278Z" fill="#828EFF"/>
<path d="M131.839 153.646H26.5216V160.535H131.839V153.646Z" fill="#828EFF"/>
<path d="M131.839 172.015H26.5216V178.903H131.839V172.015Z" fill="#828EFF"/>
<path d="M133.322 17.5094L28.8894 36.5368L53.4612 170.216L157.893 151.189L133.322 17.5094Z" fill="#E6E6E6"/>
<path d="M124.074 43.9583L46.946 58.0108L47.8732 63.0553L125.001 49.0028L124.074 43.9583Z" fill="#828EFF"/>
<path d="M126.546 57.4104L49.4186 71.4629L50.3459 76.5074L127.474 62.4549L126.546 57.4104Z" fill="#828EFF"/>
<path d="M129.019 70.8624L51.8913 84.9149L52.8185 89.9595L129.946 75.9069L129.019 70.8624Z" fill="#828EFF"/>
<path d="M131.492 84.3145L54.3639 98.367L55.2911 103.412L132.419 89.359L131.492 84.3145Z" fill="#828EFF"/>
<path d="M133.963 97.7665L56.8356 111.819L57.7628 116.863L134.89 102.811L133.963 97.7665Z" fill="#828EFF"/>
<path d="M136.437 111.219L59.3091 125.271L60.2364 130.316L137.364 116.263L136.437 111.219Z" fill="#828EFF"/>
<path d="M138.909 124.671L61.7817 138.723L62.709 143.768L139.837 129.715L138.909 124.671Z" fill="#828EFF"/>
<path d="M207.24 163.745L177.691 169.129L184.643 206.954L214.193 201.57L207.24 163.745Z" fill="#E6E6E6"/>
<path d="M204.623 171.229L182.8 175.205L183.062 176.632L204.886 172.656L204.623 171.229Z" fill="white"/>
<path d="M205.323 175.035L183.499 179.011L183.762 180.439L205.585 176.462L205.323 175.035Z" fill="white"/>
<path d="M206.023 178.841L184.199 182.817L184.461 184.245L206.285 180.269L206.023 178.841Z" fill="white"/>
<path d="M206.722 182.647L184.899 186.624L185.161 188.051L206.985 184.075L206.722 182.647Z" fill="white"/>
<path d="M207.422 186.454L185.598 190.43L185.861 191.857L207.684 187.881L207.422 186.454Z" fill="white"/>
<path d="M208.122 190.26L186.298 194.236L186.56 195.664L208.384 191.688L208.122 190.26Z" fill="white"/>
<path d="M208.821 194.066L186.998 198.043L187.26 199.47L209.084 195.494L208.821 194.066Z" fill="white"/>
<path d="M105.584 9.56702H93.0176V7.00577C93.0176 5.14772 92.2763 3.36578 90.9566 2.05194C89.637 0.738106 87.8472 0 85.9809 0H72.3796C70.5134 1.6701e-06 68.7236 0.738109 67.404 2.05194C66.0843 3.36578 65.343 5.14773 65.343 7.00577V9.56702H52.7768C51.8527 9.56702 50.9377 9.74823 50.0839 10.1003C49.2302 10.4524 48.4545 10.9684 47.8011 11.619C47.1476 12.2695 46.6293 13.0418 46.2757 13.8918C45.9221 14.7418 45.7401 15.6528 45.7401 16.5728V35.972H112.62V16.5728C112.62 15.6528 112.438 14.7418 112.085 13.8918C111.731 13.0418 111.213 12.2695 110.56 11.619C109.906 10.9684 109.13 10.4524 108.277 10.1003C107.423 9.74823 106.508 9.56702 105.584 9.56702V9.56702Z" fill="#19191C"/>
<path d="M74.6694 198.348C76.7471 196.933 78.8825 195.461 81.3498 194.817C83.6008 194.23 86.1857 194.385 87.9662 196.026C89.4031 197.351 90.0098 199.386 88.9452 201.128C88.7168 201.526 88.4064 201.871 88.0345 202.14C87.6626 202.409 87.2377 202.597 86.7876 202.691C86.3527 202.749 85.9104 202.695 85.5018 202.536C85.0932 202.377 84.7317 202.118 84.4509 201.783C83.8927 201.168 83.5587 200.261 83.8554 199.451C84.1673 198.6 85.0016 198.08 85.8211 197.789C86.7749 197.488 87.7573 197.286 88.7528 197.186L92.8299 196.63L109.518 194.356L128.102 191.823C128.249 191.782 128.374 191.684 128.449 191.552C128.524 191.42 128.545 191.264 128.505 191.117C128.461 190.972 128.363 190.85 128.231 190.775C128.099 190.701 127.943 190.679 127.796 190.716L90.8167 195.756C89.4791 195.938 88.1227 196.069 86.799 196.337C85.757 196.504 84.7691 196.913 83.9143 197.53C82.1429 198.926 82.2694 201.396 83.8995 202.856C85.5498 204.335 87.9424 204.08 89.3905 202.447C90.1227 201.621 90.5573 200.575 90.6256 199.475C90.694 198.375 90.3923 197.283 89.768 196.373C88.1872 194 85.3067 193.088 82.5544 193.425C79.3713 193.814 76.6728 195.596 74.0874 197.357C73.4787 197.772 74.0549 198.767 74.6694 198.348Z" fill="#3F3D56"/>
<path d="M204.424 155.802L204.808 159.629C204.808 159.629 202.502 168.048 207.499 168.048C212.495 168.048 208.652 159.629 208.652 159.629L209.036 156.568L204.424 155.802Z" fill="#A0616A"/>
<path d="M239.336 143.053L237.572 146.475C237.572 146.475 231.045 152.299 235.242 154.999C239.438 157.7 240.8 148.552 240.8 148.552L242.792 146.189L239.336 143.053Z" fill="#A0616A"/>
<path d="M210.574 159.247L215.955 195.601L218.645 221.624C218.645 221.624 220.952 227.364 228.639 222.389L227.486 207.464L226.717 194.071C226.717 194.071 225.948 181.059 225.18 178.763C224.411 176.467 225.564 168.814 225.564 168.814L228.639 156.185L210.574 159.247Z" fill="#19191C"/>
<path d="M219.414 220.858L216.339 224.302C216.339 224.302 211.727 222.772 210.574 225.833C209.42 228.894 219.414 229.66 219.414 229.66C219.414 229.66 229.792 230.425 229.792 229.66C229.792 228.894 229.514 223.041 228.116 222.715C226.717 222.389 219.414 220.858 219.414 220.858Z" fill="#19191C"/>
<path d="M225.18 157.333L230.561 195.601L233.251 221.624C233.251 221.624 235.558 227.364 243.245 222.389L242.092 207.464L241.323 194.071C241.323 194.071 240.554 181.059 239.786 178.763C239.017 176.467 240.17 168.814 240.17 168.814L239.401 154.654L225.18 157.333Z" fill="#19191C"/>
<path d="M234.02 220.858L230.945 224.302C230.945 224.302 226.333 222.772 225.18 225.833C224.027 228.894 234.02 229.66 234.02 229.66C234.02 229.66 244.398 230.425 244.398 229.66C244.398 228.894 244.12 223.041 242.722 222.715C241.323 222.389 234.02 220.858 234.02 220.858Z" fill="#19191C"/>
<path d="M213.649 96.8696C218.106 96.8696 221.72 93.2716 221.72 88.8333C221.72 84.3949 218.106 80.797 213.649 80.797C209.191 80.797 205.577 84.3949 205.577 88.8333C205.577 93.2716 209.191 96.8696 213.649 96.8696Z" fill="#A0616A"/>
<path d="M219.606 92.4686L223.066 98.2091L214.225 102.036L213.072 95.1474L219.606 92.4686Z" fill="#A0616A"/>
<path d="M224.026 97.6349C224.026 97.6349 215.955 96.8696 212.88 101.844L205.293 107.585C204.679 108.05 204.199 108.668 203.902 109.377C203.606 110.086 203.503 110.861 203.604 111.623L210.189 161.16L219.798 160.777L235.558 157.716L240.17 156.568L237.864 136.286C237.864 136.286 235.173 128.249 238.248 122.892L236.711 104.14L225.948 99.931L224.026 97.6349Z" fill="#828EFF"/>
<path d="M205.961 109.115L205.385 108.159C205.385 108.159 204.616 108.159 204.616 109.689C204.616 111.22 203.27 144.322 203.27 144.322L202.886 156.95L210.189 157.716L212.88 133.99L211.727 118.3L205.961 109.115Z" fill="#828EFF"/>
<path d="M231.33 103.375L236.711 104.141C238.808 106.327 240.616 108.77 242.092 111.411C244.398 115.621 251.317 123.657 249.779 129.78C248.242 135.903 243.629 147.001 243.629 147.001L236.326 143.939C236.326 143.939 242.092 130.546 241.708 129.397C241.323 128.249 236.711 121.361 236.711 121.361L231.33 103.375Z" fill="#828EFF"/>
<path d="M208.075 84.4324C208.075 84.4324 201.541 84.0498 205.769 79.8403C205.769 79.8403 209.228 78.3095 210.766 79.0749C210.766 79.0749 213.072 77.5442 213.072 78.3095C213.072 78.3095 221.144 76.0135 222.297 84.0497C223.45 92.086 221.528 95.9128 221.528 95.9128L216.147 95.5302C216.147 95.5302 217.3 89.0246 213.072 89.79C213.072 89.79 209.613 90.938 209.228 89.79C208.844 88.6419 208.075 84.4324 208.075 84.4324Z" fill="#2F2E41"/>
<path opacity="0.2" d="M211.15 157.142L214.61 134.181L212.303 120.022L213.072 135.423L210.766 157.142H211.15Z" fill="black"/>
</g>
<defs>
<clipPath id="clip0">
<rect width="250" height="230" fill="white"/>
</clipPath>
</defs>
</svg>
